<svg xmlns="http://www.w3.org/2000/svg" viewBox="0 0 320 320"><path fill-rule="evenodd" clip-rule="evenodd" fill="#F15A29" d="M309.6 0H10.4C4.7 0 0 4.7 0 10.4v299.2c0 5.7 4.7 10.4 10.4 10.4h299.2c5.7 0 10.4-4.7 10.4-10.4V10.4C320 4.7 315.3 0 309.6 0z"/><path fill="#FFF" d="M108.6 31.6l30.6 48.5c8.4 13.7 15.8 26.4 23.2 39.5h1.6c7.4-14.2 14.8-27.4 22.1-40.6l28.5-47.4h70.6L199.3 155l87.5 133.4h-73.3l-31.6-51.1c-8.4-13.7-15.8-27.4-23.2-41.6h-1.1c-7.4 14.8-14.8 27.4-23.2 41.6l-29.5 51.1H33.2l89.1-130.7-85.9-126h72.2z"/></svg>