<svg xmlns="http://www.w3.org/2000/svg" version="1.1" x="0" y="0" viewBox="0 0 185 39.6" enable-background="new 0 0 185 39.6" xml:space="preserve"><path fill-rule="evenodd" clip-rule="evenodd" fill="#F15A29" d="M48.5 7H24.1c-0.5 0-0.9 0.4-0.9 0.9v24.5c0 0.5 0.4 0.9 0.9 0.9h24.5c0.5 0 0.9-0.4 0.9-0.9V7.9C49.4 7.4 49 7 48.5 7z"/><path d="M5.1 21.6c0.1 3.8 3.1 5.4 6.5 5.4 2.5 0 4.2-0.3 5.8-0.9l0.8 3.7c-1.8 0.7-4.3 1.3-7.3 1.3C4 31 0 26.9 0 20.4 0 14.6 3.5 9.1 10.3 9.1c6.8 0 9.1 5.6 9.1 10.2 0 1-0.1 1.8-0.2 2.2H5.1zM14.3 17.9c0-1.9-0.8-5.1-4.4-5.1 -3.3 0-4.7 3-4.9 5.1H14.3z"/><path fill="#FFFFFF" d="M32.1 9.6l2.5 4c0.7 1.1 1.3 2.2 1.9 3.2h0.1c0.6-1.2 1.2-2.2 1.8-3.3l2.3-3.9h5.8l-7 10.1 7.2 10.9h-6l-2.6-4.2c-0.7-1.1-1.3-2.2-1.9-3.4h-0.1c-0.6 1.2-1.2 2.2-1.9 3.4l-2.4 4.2h-5.9l7.3-10.7 -7-10.3H32.1z"/><path d="M54.5 16.6c0-2.8-0.1-5-0.2-7h4.7l0.3 3.2h0.1c1.6-2.4 4-3.7 7.2-3.7 4.8 0 8.8 4.1 8.8 10.7 0 7.6-4.8 11.3-9.6 11.3 -2.6 0-4.8-1.1-5.9-2.8h-0.1v10.9h-5.3V16.6zM59.8 21.8c0 0.5 0 1 0.2 1.5 0.5 2.2 2.4 3.7 4.7 3.7 3.4 0 5.3-2.8 5.3-6.9 0-3.7-1.8-6.7-5.2-6.7 -2.2 0-4.2 1.6-4.7 3.9 -0.1 0.4-0.2 0.9-0.2 1.3V21.8z"/><path d="M91.1 30.6l-0.3-2.3h-0.1c-1.3 1.6-3.5 2.8-6.2 2.8 -4.2 0-6.6-3.1-6.6-6.3 0-5.3 4.7-8 12.5-7.9v-0.3c0-1.4-0.6-3.7-4.3-3.7 -2.1 0-4.2 0.6-5.6 1.6l-1-3.4c1.6-0.9 4.3-1.9 7.6-1.9 6.7 0 8.7 4.3 8.7 8.8v7.6c0 1.9 0.1 3.8 0.3 5H91.1zM90.4 20.4c-3.8-0.1-7.3 0.7-7.3 3.9 0 2.1 1.3 3 3 3 2.1 0 3.7-1.4 4.1-2.9 0.1-0.4 0.2-0.8 0.2-1.2V20.4z"/><path d="M100.7 15.9c0-2.4 0-4.4-0.2-6.3h4.7l0.3 3.1h0.1c0.9-1.6 3.2-3.6 6.7-3.6 3.7 0 7.5 2.4 7.5 9v12.5h-5.3V18.8c0-3-1.1-5.3-4-5.3 -2.1 0-3.6 1.5-4.1 3.1 -0.2 0.5-0.2 1.1-0.2 1.7v12.3h-5.3V15.9z"/><path d="M144.3 0v24.7c0 2.2 0.1 4.5 0.2 5.9h-4.7l-0.2-3.3h-0.1c-1.3 2.3-3.8 3.8-6.9 3.8 -5 0-9-4.3-9-10.7 0-7 4.4-11.2 9.4-11.2 2.9 0 5 1.2 5.9 2.8h0.1V0H144.3zM139 18.4c0-0.4 0-0.9-0.1-1.4 -0.5-2.1-2.2-3.8-4.6-3.8 -3.4 0-5.3 3-5.3 6.9 0 3.8 1.9 6.6 5.3 6.6 2.2 0 4.1-1.5 4.6-3.8 0.1-0.5 0.2-1 0.2-1.6V18.4z"/><path d="M148.9 27.7c0-2 1.4-3.4 3.3-3.4 1.9 0 3.3 1.4 3.3 3.4 0 1.9-1.3 3.4-3.3 3.4C150.3 31.1 148.9 29.6 148.9 27.7z"/><path d="M155.1 35.5c1.7-0.1 3.1-0.6 4-1.5 1-1.1 1.4-2.7 1.4-7.3V9.6h5.3v18.6c0 4.4-0.8 7.1-2.7 9 -1.9 1.7-4.8 2.5-7.4 2.5L155.1 35.5zM166 3.8c0 1.6-1.1 2.8-3 2.8 -1.8 0-2.9-1.3-2.9-2.8 0-1.6 1.2-2.9 3-2.9C164.9 0.9 166 2.1 166 3.8z"/><path d="M171.1 25.7c1.2 0.7 3.5 1.5 5.4 1.5 2.3 0 3.4-0.9 3.4-2.3 0-1.4-0.9-2.2-3.4-3.1 -4.1-1.4-5.8-3.7-5.8-6.1 0-3.7 3.1-6.6 7.9-6.6 2.3 0 4.4 0.6 5.6 1.3l-1 3.8c-0.9-0.5-2.6-1.2-4.4-1.2 -1.9 0-2.9 0.9-2.9 2.2 0 1.3 1 2 3.7 2.9 3.8 1.4 5.6 3.3 5.6 6.4 0 3.8-3 6.6-8.5 6.6 -2.5 0-4.8-0.6-6.4-1.5L171.1 25.7z"/></svg>